G04 #@! TF.GenerationSoftware,KiCad,Pcbnew,(5.99.0-10577-g57d4347f00)*
G04 #@! TF.CreationDate,2021-05-20T13:19:23+03:00*
G04 #@! TF.ProjectId,imx6ull_tryout,696d7836-756c-46c5-9f74-72796f75742e,rev?*
G04 #@! TF.SameCoordinates,Original*
G04 #@! TF.FileFunction,Soldermask,Bot*
G04 #@! TF.FilePolarity,Negative*
%FSLAX46Y46*%
G04 Gerber Fmt 4.6, Leading zero omitted, Abs format (unit mm)*
G04 Created by KiCad (PCBNEW (5.99.0-10577-g57d4347f00)) date 2021-05-20 13:19:23*
%MOMM*%
%LPD*%
G01*
G04 APERTURE LIST*
G04 Aperture macros list*
%AMRoundRect*
0 Rectangle with rounded corners*
0 $1 Rounding radius*
0 $2 $3 $4 $5 $6 $7 $8 $9 X,Y pos of 4 corners*
0 Add a 4 corners polygon primitive as box body*
4,1,4,$2,$3,$4,$5,$6,$7,$8,$9,$2,$3,0*
0 Add four circle primitives for the rounded corners*
1,1,$1+$1,$2,$3*
1,1,$1+$1,$4,$5*
1,1,$1+$1,$6,$7*
1,1,$1+$1,$8,$9*
0 Add four rect primitives between the rounded corners*
20,1,$1+$1,$2,$3,$4,$5,0*
20,1,$1+$1,$4,$5,$6,$7,0*
20,1,$1+$1,$6,$7,$8,$9,0*
20,1,$1+$1,$8,$9,$2,$3,0*%
G04 Aperture macros list end*
%ADD10C,2.286000*%
%ADD11O,2.132000X2.132000*%
%ADD12RoundRect,0.050000X0.650000X0.650000X-0.650000X0.650000X-0.650000X-0.650000X0.650000X-0.650000X0*%
%ADD13C,1.400000*%
%ADD14C,2.100000*%
%ADD15C,1.600000*%
%ADD16C,3.850000*%
%ADD17C,1.000200*%
%ADD18RoundRect,0.050000X0.698500X0.889000X-0.698500X0.889000X-0.698500X-0.889000X0.698500X-0.889000X0*%
%ADD19O,1.497000X1.878000*%
%ADD20C,3.350000*%
%ADD21C,2.600000*%
%ADD22C,6.604000*%
%ADD23C,2.400000*%
%ADD24RoundRect,0.060000X-0.240000X-0.265000X0.240000X-0.265000X0.240000X0.265000X-0.240000X0.265000X0*%
%ADD25RoundRect,0.080000X-0.320000X-0.420000X0.320000X-0.420000X0.320000X0.420000X-0.320000X0.420000X0*%
%ADD26RoundRect,0.060000X0.265000X-0.240000X0.265000X0.240000X-0.265000X0.240000X-0.265000X-0.240000X0*%
%ADD27RoundRect,0.060000X-0.357089X-0.017678X-0.017678X-0.357089X0.357089X0.017678X0.017678X0.357089X0*%
%ADD28RoundRect,0.100000X0.600000X-0.400000X0.600000X0.400000X-0.600000X0.400000X-0.600000X-0.400000X0*%
%ADD29RoundRect,0.060000X0.240000X0.265000X-0.240000X0.265000X-0.240000X-0.265000X0.240000X-0.265000X0*%
%ADD30RoundRect,0.060000X-0.265000X0.240000X-0.265000X-0.240000X0.265000X-0.240000X0.265000X0.240000X0*%
%ADD31RoundRect,0.060000X0.357089X0.017678X0.017678X0.357089X-0.357089X-0.017678X-0.017678X-0.357089X0*%
%ADD32RoundRect,0.080000X-0.420000X0.320000X-0.420000X-0.320000X0.420000X-0.320000X0.420000X0.320000X0*%
%ADD33RoundRect,0.080000X0.320000X0.420000X-0.320000X0.420000X-0.320000X-0.420000X0.320000X-0.420000X0*%
%ADD34RoundRect,0.080000X-0.458669X-0.261578X0.130454X-0.511646X0.458669X0.261578X-0.130454X0.511646X0*%
G04 APERTURE END LIST*
D10*
X104000000Y-94750000D03*
X120750000Y-95437500D03*
X104000000Y-105750000D03*
D11*
X154220000Y-82200000D03*
X156760000Y-82200000D03*
X159300000Y-82200000D03*
X161840000Y-82200000D03*
X164380000Y-82200000D03*
X166920000Y-82200000D03*
X169460000Y-82200000D03*
X82500000Y-124290000D03*
X82500000Y-126830000D03*
X82500000Y-129370000D03*
X82500000Y-131910000D03*
D12*
X83770000Y-82000000D03*
D13*
X81230000Y-82000000D03*
D10*
X116375000Y-105750000D03*
X104000000Y-103000000D03*
D12*
X83770000Y-96000000D03*
D13*
X81230000Y-96000000D03*
D10*
X104000000Y-92000000D03*
D12*
X83770000Y-110500000D03*
D13*
X81230000Y-110500000D03*
D14*
X94000000Y-130625000D03*
D15*
X96500000Y-130625000D03*
X98500000Y-130625000D03*
D14*
X101000000Y-130625000D03*
D16*
X104070000Y-133335000D03*
X90930000Y-133335000D03*
D10*
X104000000Y-100250000D03*
D14*
X112800000Y-130625000D03*
D15*
X115300000Y-130625000D03*
X117300000Y-130625000D03*
D14*
X119800000Y-130625000D03*
D16*
X109730000Y-133335000D03*
X122870000Y-133335000D03*
D11*
X154220000Y-133900000D03*
X156760000Y-133900000D03*
D10*
X112250000Y-105750000D03*
X120750000Y-105750000D03*
D11*
X154220000Y-139100000D03*
X156760000Y-139100000D03*
X159300000Y-139100000D03*
X161840000Y-139100000D03*
X164380000Y-139100000D03*
D10*
X120750000Y-98875000D03*
D11*
X154220000Y-74100000D03*
X156760000Y-74100000D03*
X159300000Y-74100000D03*
X161840000Y-74100000D03*
X164380000Y-74100000D03*
D10*
X104000000Y-97500000D03*
X120750000Y-92000000D03*
D17*
X115040000Y-90116000D03*
X115040000Y-88084000D03*
X109960000Y-89100000D03*
D18*
X84532000Y-118000000D03*
D19*
X82500000Y-118000000D03*
X80468000Y-118000000D03*
D20*
X134785000Y-132750000D03*
X146215000Y-132950000D03*
D15*
X136055000Y-126400000D03*
X137325000Y-123860000D03*
X138595000Y-126400000D03*
X139865000Y-123860000D03*
X141135000Y-126400000D03*
X142405000Y-123860000D03*
X143675000Y-126400000D03*
X144945000Y-123860000D03*
X134175000Y-137830000D03*
X136715000Y-136130000D03*
X144285000Y-137830000D03*
X146825000Y-136130000D03*
D21*
X132625000Y-129700000D03*
X148375000Y-129700000D03*
D22*
X82000000Y-139000000D03*
X172000000Y-74000000D03*
X82000000Y-74000000D03*
D10*
X120750000Y-102312500D03*
X108125000Y-105750000D03*
D23*
X90460000Y-74000000D03*
X95540000Y-74000000D03*
D22*
X172000000Y-139000000D03*
D24*
X138550000Y-101400000D03*
X139450000Y-101400000D03*
X142650000Y-94200000D03*
X143550000Y-94200000D03*
X137800000Y-86250000D03*
X138700000Y-86250000D03*
D25*
X134500000Y-99000000D03*
X136100000Y-99000000D03*
D26*
X130120000Y-80910000D03*
X130120000Y-80010000D03*
D27*
X143181802Y-98081802D03*
X143818198Y-98718198D03*
D24*
X134750000Y-91700000D03*
X135650000Y-91700000D03*
D28*
X124950000Y-80200000D03*
X124950000Y-78200000D03*
D29*
X137250000Y-100700000D03*
X136350000Y-100700000D03*
X137950000Y-92100000D03*
X137050000Y-92100000D03*
D30*
X139300000Y-94950000D03*
X139300000Y-95850000D03*
D24*
X138550000Y-102100000D03*
X139450000Y-102100000D03*
X141050000Y-102300000D03*
X141950000Y-102300000D03*
D31*
X144118198Y-101418198D03*
X143481802Y-100781802D03*
D30*
X140900000Y-94930000D03*
X140900000Y-95830000D03*
X137300000Y-95950000D03*
X137300000Y-96850000D03*
X139700000Y-98150000D03*
X139700000Y-99050000D03*
X134200000Y-100550000D03*
X134200000Y-101450000D03*
D32*
X173510000Y-99400000D03*
X173510000Y-101000000D03*
D29*
X138050000Y-100000000D03*
X137150000Y-100000000D03*
D30*
X136900000Y-103050000D03*
X136900000Y-103950000D03*
D26*
X138900000Y-97450000D03*
X138900000Y-96550000D03*
D29*
X135750000Y-103000000D03*
X134850000Y-103000000D03*
X136550000Y-101500000D03*
X135650000Y-101500000D03*
D30*
X142500000Y-94950000D03*
X142500000Y-95850000D03*
D24*
X142450000Y-100000000D03*
X143350000Y-100000000D03*
X143260000Y-92090000D03*
X144160000Y-92090000D03*
D30*
X136900000Y-110850000D03*
X136900000Y-111750000D03*
D24*
X141650000Y-101500000D03*
X142550000Y-101500000D03*
D26*
X146500000Y-93550000D03*
X146500000Y-92650000D03*
D30*
X140900000Y-96550000D03*
X140900000Y-97450000D03*
X143700000Y-96050000D03*
X143700000Y-96950000D03*
D33*
X141200000Y-99900000D03*
X139600000Y-99900000D03*
D30*
X172510000Y-99800000D03*
X172510000Y-100700000D03*
D24*
X134850000Y-99900000D03*
X135750000Y-99900000D03*
D33*
X138700000Y-98400000D03*
X137100000Y-98400000D03*
D29*
X132950000Y-78750000D03*
X132050000Y-78750000D03*
D26*
X135990000Y-79420000D03*
X135990000Y-78520000D03*
D24*
X136950000Y-102300000D03*
X137850000Y-102300000D03*
X142150000Y-90100000D03*
X143050000Y-90100000D03*
D34*
X140933596Y-98407415D03*
X142406404Y-99032585D03*
D24*
X132600000Y-80370000D03*
X133500000Y-80370000D03*
D29*
X136925000Y-112420000D03*
X136025000Y-112420000D03*
D30*
X137000000Y-94350000D03*
X137000000Y-95250000D03*
X142500000Y-96650000D03*
X142500000Y-97550000D03*
G36*
X137196652Y-112021285D02*
G01*
X137196581Y-112021959D01*
X137181231Y-112076385D01*
X137196313Y-112122802D01*
X137195897Y-112124758D01*
X137193995Y-112125376D01*
X137193300Y-112125083D01*
X137162489Y-112104497D01*
X137124801Y-112097000D01*
X136725199Y-112097000D01*
X136687511Y-112104497D01*
X136655731Y-112125731D01*
X136637163Y-112153521D01*
X136635369Y-112154406D01*
X136633706Y-112153295D01*
X136633575Y-112151867D01*
X136648487Y-112098994D01*
X136627488Y-112042073D01*
X136613885Y-112029499D01*
X136613292Y-112027589D01*
X136614650Y-112026120D01*
X136616354Y-112026367D01*
X136637511Y-112040503D01*
X136675199Y-112048000D01*
X137124801Y-112048000D01*
X137162489Y-112040503D01*
X137193545Y-112019753D01*
X137195541Y-112019622D01*
X137196652Y-112021285D01*
G37*
G36*
X136684574Y-102596837D02*
G01*
X136712511Y-102615503D01*
X136750199Y-102623000D01*
X137149801Y-102623000D01*
X137187710Y-102615459D01*
X137189604Y-102616102D01*
X137189994Y-102618064D01*
X137189671Y-102618659D01*
X137155527Y-102661968D01*
X137153152Y-102722423D01*
X137184784Y-102769766D01*
X137184915Y-102771762D01*
X137183252Y-102772873D01*
X137182010Y-102772540D01*
X137162489Y-102759497D01*
X137124801Y-102752000D01*
X136675199Y-102752000D01*
X136642048Y-102758594D01*
X136640154Y-102757951D01*
X136639764Y-102755989D01*
X136640547Y-102754969D01*
X136651246Y-102747820D01*
X136651245Y-102747818D01*
X136651114Y-102745822D01*
X136651931Y-102744962D01*
X136678577Y-102730037D01*
X136703905Y-102675093D01*
X136692041Y-102615463D01*
X136688151Y-102609116D01*
X136681800Y-102599611D01*
X136681669Y-102597615D01*
X136683332Y-102596504D01*
X136684574Y-102596837D01*
G37*
G36*
X138251228Y-101904325D02*
G01*
X138252000Y-101905904D01*
X138252000Y-102324801D01*
X138259497Y-102362489D01*
X138280731Y-102394269D01*
X138300681Y-102407599D01*
X138301566Y-102409393D01*
X138300455Y-102411056D01*
X138299027Y-102411187D01*
X138246156Y-102396275D01*
X138189393Y-102417216D01*
X138155673Y-102467681D01*
X138151981Y-102494370D01*
X138150753Y-102495949D01*
X138148772Y-102495675D01*
X138148000Y-102494096D01*
X138148000Y-102075199D01*
X138140503Y-102037511D01*
X138119269Y-102005731D01*
X138099319Y-101992401D01*
X138098434Y-101990607D01*
X138099545Y-101988944D01*
X138100973Y-101988813D01*
X138153844Y-102003725D01*
X138210607Y-101982784D01*
X138244327Y-101932319D01*
X138248019Y-101905630D01*
X138249247Y-101904051D01*
X138251228Y-101904325D01*
G37*
G36*
X141918530Y-101798371D02*
G01*
X141918197Y-101799613D01*
X141911252Y-101810007D01*
X141911160Y-101810134D01*
X141886734Y-101841118D01*
X141884359Y-101901573D01*
X141917961Y-101951862D01*
X141979235Y-101973110D01*
X141980544Y-101974623D01*
X141979889Y-101976512D01*
X141978580Y-101977000D01*
X141750199Y-101977000D01*
X141712511Y-101984497D01*
X141684577Y-102003161D01*
X141682581Y-102003292D01*
X141681470Y-102001629D01*
X141681803Y-102000387D01*
X141688748Y-101989993D01*
X141688840Y-101989866D01*
X141713266Y-101958882D01*
X141715641Y-101898427D01*
X141682039Y-101848138D01*
X141620765Y-101826890D01*
X141619456Y-101825377D01*
X141620111Y-101823488D01*
X141621420Y-101823000D01*
X141849801Y-101823000D01*
X141887489Y-101815503D01*
X141915423Y-101796839D01*
X141917419Y-101796708D01*
X141918530Y-101798371D01*
G37*
G36*
X136818530Y-101798371D02*
G01*
X136818197Y-101799613D01*
X136811252Y-101810007D01*
X136811160Y-101810134D01*
X136786734Y-101841118D01*
X136784359Y-101901573D01*
X136817961Y-101951862D01*
X136879235Y-101973110D01*
X136880544Y-101974623D01*
X136879889Y-101976512D01*
X136878580Y-101977000D01*
X136750199Y-101977000D01*
X136712511Y-101984497D01*
X136684577Y-102003161D01*
X136682581Y-102003292D01*
X136681470Y-102001629D01*
X136681803Y-102000387D01*
X136688748Y-101989993D01*
X136688840Y-101989866D01*
X136713266Y-101958882D01*
X136715641Y-101898427D01*
X136682039Y-101848138D01*
X136620765Y-101826890D01*
X136619456Y-101825377D01*
X136620111Y-101823488D01*
X136621420Y-101823000D01*
X136749801Y-101823000D01*
X136787489Y-101815503D01*
X136815423Y-101796839D01*
X136817419Y-101796708D01*
X136818530Y-101798371D01*
G37*
G36*
X139182797Y-101695650D02*
G01*
X139212511Y-101715503D01*
X139250199Y-101723000D01*
X139649801Y-101723000D01*
X139687489Y-101715503D01*
X139717355Y-101695548D01*
X139719351Y-101695417D01*
X139720462Y-101697080D01*
X139720391Y-101697754D01*
X139704561Y-101753886D01*
X139720216Y-101802069D01*
X139719800Y-101804025D01*
X139717898Y-101804643D01*
X139717203Y-101804350D01*
X139687489Y-101784497D01*
X139649801Y-101777000D01*
X139250199Y-101777000D01*
X139212511Y-101784497D01*
X139182645Y-101804452D01*
X139180649Y-101804583D01*
X139179538Y-101802920D01*
X139179609Y-101802246D01*
X139195439Y-101746114D01*
X139179784Y-101697931D01*
X139180200Y-101695975D01*
X139182102Y-101695357D01*
X139182797Y-101695650D01*
G37*
G36*
X138282797Y-101695650D02*
G01*
X138312511Y-101715503D01*
X138350199Y-101723000D01*
X138749801Y-101723000D01*
X138787489Y-101715503D01*
X138817355Y-101695548D01*
X138819351Y-101695417D01*
X138820462Y-101697080D01*
X138820391Y-101697754D01*
X138804561Y-101753886D01*
X138820216Y-101802069D01*
X138819800Y-101804025D01*
X138817898Y-101804643D01*
X138817203Y-101804350D01*
X138787489Y-101784497D01*
X138749801Y-101777000D01*
X138350199Y-101777000D01*
X138312511Y-101784497D01*
X138282645Y-101804452D01*
X138280649Y-101804583D01*
X138279538Y-101802920D01*
X138279609Y-101802246D01*
X138295439Y-101746114D01*
X138279784Y-101697931D01*
X138280200Y-101695975D01*
X138282102Y-101695357D01*
X138282797Y-101695650D01*
G37*
G36*
X136618530Y-100998371D02*
G01*
X136618197Y-100999613D01*
X136611252Y-101010007D01*
X136611160Y-101010134D01*
X136586734Y-101041118D01*
X136584359Y-101101573D01*
X136617961Y-101151862D01*
X136679235Y-101173110D01*
X136680544Y-101174623D01*
X136679889Y-101176512D01*
X136678580Y-101177000D01*
X136350199Y-101177000D01*
X136312511Y-101184497D01*
X136284577Y-101203161D01*
X136282581Y-101203292D01*
X136281470Y-101201629D01*
X136281803Y-101200387D01*
X136288748Y-101189993D01*
X136288840Y-101189866D01*
X136313266Y-101158882D01*
X136315641Y-101098427D01*
X136282039Y-101048138D01*
X136220765Y-101026890D01*
X136219456Y-101025377D01*
X136220111Y-101023488D01*
X136221420Y-101023000D01*
X136549801Y-101023000D01*
X136587489Y-101015503D01*
X136615423Y-100996839D01*
X136617419Y-100996708D01*
X136618530Y-100998371D01*
G37*
G36*
X172836902Y-100622842D02*
G01*
X172855799Y-100681001D01*
X172904748Y-100716565D01*
X172965228Y-100716565D01*
X173016938Y-100677422D01*
X173017079Y-100677608D01*
X173018249Y-100677005D01*
X173019932Y-100678087D01*
X173020116Y-100679393D01*
X173012000Y-100720199D01*
X173012000Y-100991164D01*
X173011000Y-100992896D01*
X173009000Y-100992896D01*
X173008098Y-100991782D01*
X172989201Y-100933623D01*
X172940252Y-100898059D01*
X172879772Y-100898059D01*
X172829313Y-100936256D01*
X172827329Y-100936504D01*
X172826121Y-100934909D01*
X172826144Y-100934271D01*
X172833000Y-100899801D01*
X172833000Y-100623460D01*
X172834000Y-100621728D01*
X172836000Y-100621728D01*
X172836902Y-100622842D01*
G37*
G36*
X143618532Y-100298370D02*
G01*
X143618199Y-100299612D01*
X143615262Y-100304007D01*
X143615170Y-100304134D01*
X143585212Y-100342132D01*
X143582833Y-100402650D01*
X143608073Y-100445717D01*
X143608086Y-100447717D01*
X143606360Y-100448728D01*
X143604933Y-100448142D01*
X143568916Y-100412125D01*
X143536969Y-100390779D01*
X143499480Y-100383321D01*
X143461990Y-100390779D01*
X143430043Y-100412125D01*
X143345045Y-100497123D01*
X143343113Y-100497641D01*
X143341699Y-100496227D01*
X143341849Y-100494801D01*
X143369612Y-100440313D01*
X143360148Y-100380555D01*
X143317306Y-100337713D01*
X143272454Y-100326945D01*
X143271003Y-100325568D01*
X143271470Y-100323623D01*
X143272921Y-100323000D01*
X143549801Y-100323000D01*
X143587489Y-100315503D01*
X143615425Y-100296838D01*
X143617421Y-100296707D01*
X143618532Y-100298370D01*
G37*
G36*
X137441393Y-100266558D02*
G01*
X137441561Y-100267833D01*
X137439740Y-100276983D01*
X137446895Y-100337438D01*
X137481580Y-100378049D01*
X137484453Y-100379969D01*
X137485338Y-100381763D01*
X137484227Y-100383426D01*
X137482952Y-100383594D01*
X137449801Y-100377000D01*
X137050199Y-100377000D01*
X137012511Y-100384497D01*
X136980731Y-100405731D01*
X136962064Y-100433668D01*
X136960270Y-100434553D01*
X136958607Y-100433442D01*
X136958439Y-100432167D01*
X136960260Y-100423017D01*
X136953105Y-100362562D01*
X136918420Y-100321951D01*
X136915547Y-100320031D01*
X136914662Y-100318237D01*
X136915773Y-100316574D01*
X136917048Y-100316406D01*
X136950199Y-100323000D01*
X137349801Y-100323000D01*
X137387489Y-100315503D01*
X137419269Y-100294269D01*
X137437936Y-100266332D01*
X137439730Y-100265447D01*
X137441393Y-100266558D01*
G37*
G36*
X173011512Y-99507527D02*
G01*
X173012000Y-99508836D01*
X173012000Y-99679801D01*
X173020116Y-99720607D01*
X173019473Y-99722501D01*
X173017511Y-99722891D01*
X173016973Y-99722470D01*
X173016907Y-99722554D01*
X172968881Y-99684694D01*
X172908426Y-99682319D01*
X172858138Y-99715921D01*
X172836890Y-99777195D01*
X172835377Y-99778504D01*
X172833488Y-99777849D01*
X172833000Y-99776540D01*
X172833000Y-99600199D01*
X172826153Y-99565776D01*
X172826796Y-99563882D01*
X172828758Y-99563492D01*
X172829353Y-99563815D01*
X172876118Y-99600682D01*
X172936573Y-99603057D01*
X172986861Y-99569455D01*
X173008110Y-99508181D01*
X173009623Y-99506872D01*
X173011512Y-99507527D01*
G37*
G36*
X142220862Y-99494835D02*
G01*
X142469380Y-99600324D01*
X142514637Y-99609738D01*
X142559855Y-99601153D01*
X142598348Y-99575916D01*
X142624475Y-99537543D01*
X142626276Y-99536674D01*
X142626910Y-99536828D01*
X142627503Y-99537080D01*
X142628706Y-99538678D01*
X142628641Y-99539481D01*
X142613839Y-99590260D01*
X142634282Y-99647204D01*
X142681570Y-99679403D01*
X142682438Y-99681204D01*
X142681313Y-99682857D01*
X142680054Y-99683018D01*
X142649801Y-99677000D01*
X142250199Y-99677000D01*
X142217048Y-99683594D01*
X142215154Y-99682951D01*
X142214764Y-99680989D01*
X142215547Y-99679969D01*
X142226246Y-99672820D01*
X142226126Y-99672640D01*
X142225995Y-99670644D01*
X142226812Y-99669784D01*
X142252891Y-99655180D01*
X142278224Y-99600238D01*
X142266426Y-99540911D01*
X142218746Y-99498165D01*
X142218124Y-99496264D01*
X142219459Y-99494775D01*
X142220862Y-99494835D01*
G37*
G36*
X134889870Y-99429213D02*
G01*
X134890038Y-99430488D01*
X134887366Y-99443920D01*
X134887628Y-99444149D01*
X134887659Y-99445336D01*
X134878208Y-99478843D01*
X134899148Y-99535606D01*
X134949612Y-99569327D01*
X134976303Y-99573019D01*
X134977882Y-99574247D01*
X134977608Y-99576228D01*
X134976029Y-99577000D01*
X134650199Y-99577000D01*
X134612511Y-99584497D01*
X134580731Y-99605731D01*
X134562064Y-99633668D01*
X134560270Y-99634553D01*
X134558607Y-99633442D01*
X134558439Y-99632167D01*
X134560974Y-99619427D01*
X134553825Y-99559015D01*
X134512709Y-99514538D01*
X134464415Y-99501935D01*
X134462992Y-99500530D01*
X134463497Y-99498595D01*
X134464920Y-99498000D01*
X134779801Y-99498000D01*
X134825143Y-99488981D01*
X134863411Y-99463411D01*
X134886413Y-99428987D01*
X134888207Y-99428102D01*
X134889870Y-99429213D01*
G37*
G36*
X135714902Y-99430954D02*
G01*
X135736589Y-99463411D01*
X135774857Y-99488981D01*
X135820199Y-99498000D01*
X136135080Y-99498000D01*
X136136812Y-99499000D01*
X136136812Y-99501000D01*
X136135698Y-99501902D01*
X136077539Y-99520799D01*
X136041938Y-99569800D01*
X136039015Y-99619370D01*
X136041561Y-99632167D01*
X136040918Y-99634061D01*
X136038956Y-99634451D01*
X136037936Y-99633668D01*
X136019269Y-99605731D01*
X135987489Y-99584497D01*
X135949801Y-99577000D01*
X135623971Y-99577000D01*
X135622239Y-99576000D01*
X135622239Y-99574000D01*
X135623353Y-99573098D01*
X135681512Y-99554201D01*
X135717076Y-99505252D01*
X135717076Y-99444561D01*
X135711439Y-99432938D01*
X135711583Y-99430943D01*
X135713383Y-99430070D01*
X135714902Y-99430954D01*
G37*
G36*
X139386176Y-99290002D02*
G01*
X139405731Y-99319269D01*
X139437511Y-99340503D01*
X139475199Y-99348000D01*
X139924801Y-99348000D01*
X139962489Y-99340503D01*
X139990424Y-99321838D01*
X139992420Y-99321707D01*
X139993531Y-99323370D01*
X139993198Y-99324612D01*
X139985822Y-99335651D01*
X139986347Y-99336714D01*
X139985922Y-99337822D01*
X139965705Y-99363469D01*
X139963327Y-99424094D01*
X139971081Y-99440913D01*
X139970898Y-99442904D01*
X139969082Y-99443742D01*
X139967602Y-99442861D01*
X139963411Y-99436589D01*
X139925143Y-99411019D01*
X139879801Y-99402000D01*
X139320199Y-99402000D01*
X139311605Y-99403709D01*
X139309711Y-99403066D01*
X139309321Y-99401104D01*
X139310238Y-99400002D01*
X139358168Y-99373160D01*
X139383570Y-99318061D01*
X139382515Y-99291191D01*
X139383446Y-99289422D01*
X139385444Y-99289343D01*
X139386176Y-99290002D01*
G37*
G36*
X142823280Y-97763775D02*
G01*
X142823947Y-97765044D01*
X142830404Y-97819596D01*
X142871475Y-97864026D01*
X142930796Y-97875825D01*
X142989145Y-97847523D01*
X142991140Y-97847666D01*
X142992013Y-97849466D01*
X142991432Y-97850736D01*
X142825736Y-98016432D01*
X142823804Y-98016950D01*
X142822390Y-98015536D01*
X142822540Y-98014110D01*
X142850303Y-97959622D01*
X142840839Y-97899864D01*
X142798072Y-97857097D01*
X142739639Y-97849015D01*
X142738060Y-97847787D01*
X142738334Y-97845806D01*
X142739523Y-97845072D01*
X142762489Y-97840503D01*
X142794269Y-97819269D01*
X142815503Y-97787489D01*
X142819999Y-97764889D01*
X142821318Y-97763385D01*
X142823280Y-97763775D01*
G37*
G36*
X140675199Y-97748000D02*
G01*
X141122526Y-97748000D01*
X141124258Y-97749000D01*
X141124258Y-97751000D01*
X141123503Y-97751745D01*
X141074212Y-97779350D01*
X141048881Y-97834294D01*
X141060682Y-97893620D01*
X141108360Y-97936362D01*
X141108982Y-97938263D01*
X141107647Y-97939752D01*
X141106244Y-97939692D01*
X140870620Y-97839676D01*
X140825363Y-97830262D01*
X140780145Y-97838847D01*
X140741652Y-97864084D01*
X140721567Y-97893582D01*
X140719766Y-97894451D01*
X140718113Y-97893325D01*
X140717994Y-97891896D01*
X140733366Y-97839154D01*
X140712921Y-97782211D01*
X140665631Y-97750013D01*
X140664762Y-97748212D01*
X140665888Y-97746559D01*
X140667147Y-97746398D01*
X140675199Y-97748000D01*
G37*
G36*
X138609576Y-97721838D02*
G01*
X138637511Y-97740503D01*
X138675199Y-97748000D01*
X139113955Y-97748000D01*
X139115687Y-97749000D01*
X139115687Y-97751000D01*
X139114573Y-97751902D01*
X139112689Y-97752514D01*
X139112461Y-97752574D01*
X139107160Y-97753628D01*
X139106965Y-97754204D01*
X139106264Y-97754602D01*
X139056414Y-97770799D01*
X139020850Y-97819748D01*
X139020850Y-97880228D01*
X139056455Y-97927263D01*
X139056703Y-97929247D01*
X139055108Y-97930455D01*
X139053749Y-97930133D01*
X139025143Y-97911019D01*
X138979801Y-97902000D01*
X138546420Y-97902000D01*
X138544688Y-97901000D01*
X138544688Y-97899000D01*
X138545802Y-97898098D01*
X138603961Y-97879201D01*
X138639525Y-97830252D01*
X138639525Y-97769772D01*
X138614892Y-97737232D01*
X138614813Y-97736602D01*
X138606802Y-97724612D01*
X138606671Y-97722616D01*
X138608334Y-97721505D01*
X138609576Y-97721838D01*
G37*
G36*
X138996835Y-96105956D02*
G01*
X139005731Y-96119269D01*
X139037511Y-96140503D01*
X139075199Y-96148000D01*
X139294096Y-96148000D01*
X139295828Y-96149000D01*
X139295828Y-96151000D01*
X139294714Y-96151902D01*
X139236555Y-96170799D01*
X139200991Y-96219748D01*
X139200991Y-96280441D01*
X139206627Y-96292060D01*
X139206484Y-96294055D01*
X139204684Y-96294928D01*
X139203165Y-96294044D01*
X139194269Y-96280731D01*
X139162489Y-96259497D01*
X139124801Y-96252000D01*
X138905904Y-96252000D01*
X138904172Y-96251000D01*
X138904172Y-96249000D01*
X138905286Y-96248098D01*
X138963445Y-96229201D01*
X138999009Y-96180252D01*
X138999009Y-96119559D01*
X138993373Y-96107940D01*
X138993516Y-96105945D01*
X138995316Y-96105072D01*
X138996835Y-96105956D01*
G37*
G36*
X141181205Y-96111606D02*
G01*
X141180780Y-96112975D01*
X141146769Y-96156117D01*
X141144394Y-96216572D01*
X141176026Y-96263914D01*
X141176157Y-96265910D01*
X141174494Y-96267021D01*
X141173252Y-96266688D01*
X141162489Y-96259497D01*
X141124801Y-96252000D01*
X140675199Y-96252000D01*
X140637511Y-96259497D01*
X140621902Y-96269926D01*
X140619906Y-96270057D01*
X140618795Y-96268394D01*
X140619220Y-96267025D01*
X140653231Y-96223883D01*
X140655606Y-96163428D01*
X140623974Y-96116086D01*
X140623843Y-96114090D01*
X140625506Y-96112979D01*
X140626748Y-96113312D01*
X140637511Y-96120503D01*
X140675199Y-96128000D01*
X141124801Y-96128000D01*
X141162489Y-96120503D01*
X141178098Y-96110074D01*
X141180094Y-96109943D01*
X141181205Y-96111606D01*
G37*
G36*
X137311056Y-95499545D02*
G01*
X137311187Y-95500973D01*
X137296275Y-95553844D01*
X137317216Y-95610607D01*
X137367681Y-95644327D01*
X137394370Y-95648019D01*
X137395949Y-95649247D01*
X137395675Y-95651228D01*
X137394096Y-95652000D01*
X137075199Y-95652000D01*
X137037511Y-95659497D01*
X137005731Y-95680731D01*
X136992401Y-95700681D01*
X136990607Y-95701566D01*
X136988944Y-95700455D01*
X136988813Y-95699027D01*
X137003725Y-95646156D01*
X136982784Y-95589393D01*
X136932319Y-95555673D01*
X136905630Y-95551981D01*
X136904051Y-95550753D01*
X136904325Y-95548772D01*
X136905904Y-95548000D01*
X137224801Y-95548000D01*
X137262489Y-95540503D01*
X137294269Y-95519269D01*
X137307599Y-95499319D01*
X137309393Y-95498434D01*
X137311056Y-95499545D01*
G37*
G36*
X142383476Y-94496103D02*
G01*
X142412511Y-94515503D01*
X142450199Y-94523000D01*
X142849514Y-94523000D01*
X142851246Y-94524000D01*
X142851246Y-94526000D01*
X142850491Y-94526745D01*
X142802291Y-94553739D01*
X142776961Y-94608683D01*
X142788824Y-94668314D01*
X142792714Y-94674663D01*
X142793198Y-94675388D01*
X142793329Y-94677384D01*
X142791666Y-94678495D01*
X142790424Y-94678162D01*
X142762489Y-94659497D01*
X142724801Y-94652000D01*
X142297608Y-94652000D01*
X142295876Y-94651000D01*
X142295876Y-94649000D01*
X142296990Y-94648098D01*
X142355149Y-94629201D01*
X142390713Y-94580252D01*
X142390713Y-94519559D01*
X142380566Y-94498639D01*
X142380709Y-94496644D01*
X142382509Y-94495771D01*
X142383476Y-94496103D01*
G37*
M02*
