G04 #@! TF.GenerationSoftware,KiCad,Pcbnew,(5.99.0-10577-g57d4347f00)*
G04 #@! TF.CreationDate,2021-05-20T13:19:23+03:00*
G04 #@! TF.ProjectId,imx6ull_tryout,696d7836-756c-46c5-9f74-72796f75742e,rev?*
G04 #@! TF.SameCoordinates,Original*
G04 #@! TF.FileFunction,Paste,Top*
G04 #@! TF.FilePolarity,Positive*
%FSLAX46Y46*%
G04 Gerber Fmt 4.6, Leading zero omitted, Abs format (unit mm)*
G04 Created by KiCad (PCBNEW (5.99.0-10577-g57d4347f00)) date 2021-05-20 13:19:23*
%MOMM*%
%LPD*%
G01*
G04 APERTURE LIST*
G04 Aperture macros list*
%AMRoundRect*
0 Rectangle with rounded corners*
0 $1 Rounding radius*
0 $2 $3 $4 $5 $6 $7 $8 $9 X,Y pos of 4 corners*
0 Add a 4 corners polygon primitive as box body*
4,1,4,$2,$3,$4,$5,$6,$7,$8,$9,$2,$3,0*
0 Add four circle primitives for the rounded corners*
1,1,$1+$1,$2,$3*
1,1,$1+$1,$4,$5*
1,1,$1+$1,$6,$7*
1,1,$1+$1,$8,$9*
0 Add four rect primitives between the rounded corners*
20,1,$1+$1,$2,$3,$4,$5,0*
20,1,$1+$1,$4,$5,$6,$7,0*
20,1,$1+$1,$6,$7,$8,$9,0*
20,1,$1+$1,$8,$9,$2,$3,0*%
G04 Aperture macros list end*
%ADD10C,0.010000*%
%ADD11RoundRect,0.050000X-0.200000X-0.225000X0.200000X-0.225000X0.200000X0.225000X-0.200000X0.225000X0*%
%ADD12RoundRect,0.070000X-0.280000X-0.380000X0.280000X-0.380000X0.280000X0.380000X-0.280000X0.380000X0*%
%ADD13RoundRect,0.050000X-0.225000X0.200000X-0.225000X-0.200000X0.225000X-0.200000X0.225000X0.200000X0*%
%ADD14R,0.800000X0.900000*%
%ADD15RoundRect,0.070000X0.380000X-0.280000X0.380000X0.280000X-0.380000X0.280000X-0.380000X-0.280000X0*%
%ADD16RoundRect,0.050000X0.225000X-0.200000X0.225000X0.200000X-0.225000X0.200000X-0.225000X-0.200000X0*%
%ADD17RoundRect,0.090000X0.360000X0.560000X-0.360000X0.560000X-0.360000X-0.560000X0.360000X-0.560000X0*%
%ADD18R,4.200000X2.000000*%
%ADD19R,1.700000X1.400000*%
%ADD20RoundRect,0.050000X0.200000X0.225000X-0.200000X0.225000X-0.200000X-0.225000X0.200000X-0.225000X0*%
%ADD21RoundRect,0.090000X-0.360000X-0.560000X0.360000X-0.560000X0.360000X0.560000X-0.360000X0.560000X0*%
%ADD22R,0.900000X0.800000*%
%ADD23C,0.430000*%
%ADD24RoundRect,0.110000X0.440000X-0.540000X0.440000X0.540000X-0.440000X0.540000X-0.440000X-0.540000X0*%
%ADD25R,1.100000X1.300000*%
%ADD26C,0.370000*%
%ADD27RoundRect,0.090000X-0.560000X0.360000X-0.560000X-0.360000X0.560000X-0.360000X0.560000X0.360000X0*%
%ADD28R,1.500000X0.800000*%
%ADD29R,1.000000X0.950000*%
%ADD30R,1.900000X1.400000*%
%ADD31R,1.400000X1.300000*%
%ADD32R,2.000000X0.600000*%
%ADD33R,0.800000X1.600000*%
%ADD34R,0.533000X1.473000*%
%ADD35R,0.900000X0.400000*%
%ADD36RoundRect,0.090000X0.560000X-0.360000X0.560000X0.360000X-0.560000X0.360000X-0.560000X-0.360000X0*%
%ADD37R,2.000000X1.750000*%
%ADD38R,2.400000X1.750000*%
%ADD39R,0.450000X0.200000*%
%ADD40R,0.450000X0.400000*%
%ADD41R,0.250000X0.250000*%
%ADD42R,0.200000X0.450000*%
%ADD43R,0.400000X0.450000*%
%ADD44R,1.250000X0.300000*%
%ADD45R,3.000000X2.000000*%
%ADD46R,1.800000X1.000000*%
G04 APERTURE END LIST*
D10*
X140540000Y-117040000D02*
X141295000Y-117040000D01*
X141295000Y-117040000D02*
X141295000Y-117795000D01*
X141295000Y-117795000D02*
X140540000Y-117795000D01*
X140540000Y-117795000D02*
X140540000Y-117040000D01*
G36*
X141295000Y-117795000D02*
G01*
X140540000Y-117795000D01*
X140540000Y-117040000D01*
X141295000Y-117040000D01*
X141295000Y-117795000D01*
G37*
X141295000Y-117795000D02*
X140540000Y-117795000D01*
X140540000Y-117040000D01*
X141295000Y-117040000D01*
X141295000Y-117795000D01*
X139585000Y-116085000D02*
X140340000Y-116085000D01*
X140340000Y-116085000D02*
X140340000Y-116840000D01*
X140340000Y-116840000D02*
X139585000Y-116840000D01*
X139585000Y-116840000D02*
X139585000Y-116085000D01*
G36*
X140340000Y-116840000D02*
G01*
X139585000Y-116840000D01*
X139585000Y-116085000D01*
X140340000Y-116085000D01*
X140340000Y-116840000D01*
G37*
X140340000Y-116840000D02*
X139585000Y-116840000D01*
X139585000Y-116085000D01*
X140340000Y-116085000D01*
X140340000Y-116840000D01*
X139585000Y-117040000D02*
X140340000Y-117040000D01*
X140340000Y-117040000D02*
X140340000Y-117795000D01*
X140340000Y-117795000D02*
X139585000Y-117795000D01*
X139585000Y-117795000D02*
X139585000Y-117040000D01*
G36*
X140340000Y-117795000D02*
G01*
X139585000Y-117795000D01*
X139585000Y-117040000D01*
X140340000Y-117040000D01*
X140340000Y-117795000D01*
G37*
X140340000Y-117795000D02*
X139585000Y-117795000D01*
X139585000Y-117040000D01*
X140340000Y-117040000D01*
X140340000Y-117795000D01*
X140540000Y-116085000D02*
X141295000Y-116085000D01*
X141295000Y-116085000D02*
X141295000Y-116840000D01*
X141295000Y-116840000D02*
X140540000Y-116840000D01*
X140540000Y-116840000D02*
X140540000Y-116085000D01*
G36*
X141295000Y-116840000D02*
G01*
X140540000Y-116840000D01*
X140540000Y-116085000D01*
X141295000Y-116085000D01*
X141295000Y-116840000D01*
G37*
X141295000Y-116840000D02*
X140540000Y-116840000D01*
X140540000Y-116085000D01*
X141295000Y-116085000D01*
X141295000Y-116840000D01*
D11*
X148250000Y-97000000D03*
X149150000Y-97000000D03*
X156250000Y-131700000D03*
X157150000Y-131700000D03*
D12*
X134450000Y-75750000D03*
X136050000Y-75750000D03*
D11*
X153950000Y-76500000D03*
X154850000Y-76500000D03*
D13*
X132700000Y-107450000D03*
X132700000Y-108350000D03*
D14*
X134450000Y-74350000D03*
X136050000Y-74350000D03*
D15*
X129400000Y-75850000D03*
X129400000Y-74250000D03*
D16*
X141515000Y-114640000D03*
X141515000Y-113740000D03*
D14*
X131450000Y-74350000D03*
X133050000Y-74350000D03*
D13*
X124750000Y-101100000D03*
X124750000Y-102000000D03*
X119000000Y-95950000D03*
X119000000Y-96850000D03*
D17*
X135000000Y-120750000D03*
X133000000Y-120750000D03*
D11*
X130210000Y-87800000D03*
X131110000Y-87800000D03*
D18*
X87000000Y-91250000D03*
X87000000Y-88250000D03*
D11*
X127950000Y-86500000D03*
X128850000Y-86500000D03*
D17*
X164891291Y-108400000D03*
X162891291Y-108400000D03*
D13*
X138000000Y-118390000D03*
X138000000Y-119290000D03*
D19*
X168828791Y-109000000D03*
X168828791Y-106200000D03*
D13*
X125750000Y-101100000D03*
X125750000Y-102000000D03*
D20*
X135250000Y-110400000D03*
X134350000Y-110400000D03*
D21*
X146000000Y-120750000D03*
X148000000Y-120750000D03*
D22*
X147600000Y-112900000D03*
X147600000Y-114500000D03*
D13*
X137200000Y-118390000D03*
X137200000Y-119290000D03*
D23*
X126250000Y-85200000D03*
X126250000Y-84400000D03*
X126250000Y-83600000D03*
X126250000Y-80400000D03*
X126250000Y-79600000D03*
X126250000Y-78800000D03*
X127050000Y-85200000D03*
X127050000Y-84400000D03*
X127050000Y-83600000D03*
X127050000Y-80400000D03*
X127050000Y-79600000D03*
X127050000Y-78800000D03*
X127850000Y-85200000D03*
X127850000Y-84400000D03*
X127850000Y-83600000D03*
X127850000Y-80400000D03*
X127850000Y-79600000D03*
X127850000Y-78800000D03*
X128650000Y-85200000D03*
X128650000Y-84400000D03*
X128650000Y-83600000D03*
X128650000Y-80400000D03*
X128650000Y-79600000D03*
X128650000Y-78800000D03*
X129450000Y-85200000D03*
X129450000Y-84400000D03*
X129450000Y-83600000D03*
X129450000Y-80400000D03*
X129450000Y-79600000D03*
X129450000Y-78800000D03*
X130250000Y-85200000D03*
X130250000Y-84400000D03*
X130250000Y-83600000D03*
X130250000Y-80400000D03*
X130250000Y-79600000D03*
X130250000Y-78800000D03*
X131050000Y-85200000D03*
X131050000Y-84400000D03*
X131050000Y-83600000D03*
X131050000Y-80400000D03*
X131050000Y-79600000D03*
X131050000Y-78800000D03*
X131850000Y-85200000D03*
X131850000Y-84400000D03*
X131850000Y-83600000D03*
X131850000Y-80400000D03*
X131850000Y-79600000D03*
X131850000Y-78800000D03*
X132650000Y-85200000D03*
X132650000Y-84400000D03*
X132650000Y-83600000D03*
X132650000Y-80400000D03*
X132650000Y-79600000D03*
X132650000Y-78800000D03*
X133450000Y-85200000D03*
X133450000Y-84400000D03*
X133450000Y-83600000D03*
X133450000Y-80400000D03*
X133450000Y-79600000D03*
X133450000Y-78800000D03*
X134250000Y-85200000D03*
X134250000Y-84400000D03*
X134250000Y-83600000D03*
X134250000Y-80400000D03*
X134250000Y-79600000D03*
X134250000Y-78800000D03*
X135050000Y-85200000D03*
X135050000Y-84400000D03*
X135050000Y-83600000D03*
X135050000Y-80400000D03*
X135050000Y-79600000D03*
X135050000Y-78800000D03*
X135850000Y-85200000D03*
X135850000Y-84400000D03*
X135850000Y-83600000D03*
X135850000Y-80400000D03*
X135850000Y-79600000D03*
X135850000Y-78800000D03*
X136650000Y-85200000D03*
X136650000Y-84400000D03*
X136650000Y-83600000D03*
X136650000Y-80400000D03*
X136650000Y-79600000D03*
X136650000Y-78800000D03*
X137450000Y-85200000D03*
X137450000Y-84400000D03*
X137450000Y-83600000D03*
X137450000Y-80400000D03*
X137450000Y-79600000D03*
X137450000Y-78800000D03*
X138250000Y-85200000D03*
X138250000Y-84400000D03*
X138250000Y-83600000D03*
X138250000Y-80400000D03*
X138250000Y-79600000D03*
X138250000Y-78800000D03*
D20*
X164812500Y-84500000D03*
X163912500Y-84500000D03*
D15*
X160328791Y-107450000D03*
X160328791Y-105850000D03*
D20*
X145150000Y-109900000D03*
X144250000Y-109900000D03*
D11*
X153750000Y-131700000D03*
X154650000Y-131700000D03*
X80308500Y-106433500D03*
X81208500Y-106433500D03*
D24*
X135750000Y-109150000D03*
D25*
X135750000Y-106850000D03*
X133850000Y-106850000D03*
X133850000Y-109150000D03*
D26*
X147100000Y-91500000D03*
X147100000Y-92300000D03*
X147100000Y-93100000D03*
X147100000Y-93900000D03*
X147100000Y-94700000D03*
X147100000Y-95500000D03*
X147100000Y-96300000D03*
X147100000Y-97100000D03*
X147100000Y-97900000D03*
X147100000Y-98700000D03*
X147100000Y-99500000D03*
X147100000Y-100300000D03*
X147100000Y-101100000D03*
X147100000Y-101900000D03*
X147100000Y-102700000D03*
X147100000Y-103500000D03*
X147100000Y-104300000D03*
X146300000Y-91500000D03*
X146300000Y-92300000D03*
X146300000Y-93100000D03*
X146300000Y-93900000D03*
X146300000Y-94700000D03*
X146300000Y-95500000D03*
X146300000Y-96300000D03*
X146300000Y-97100000D03*
X146300000Y-97900000D03*
X146300000Y-98700000D03*
X146300000Y-99500000D03*
X146300000Y-100300000D03*
X146300000Y-101100000D03*
X146300000Y-101900000D03*
X146300000Y-102700000D03*
X146300000Y-103500000D03*
X146300000Y-104300000D03*
X145500000Y-91500000D03*
X145500000Y-92300000D03*
X145500000Y-93100000D03*
X145500000Y-93900000D03*
X145500000Y-94700000D03*
X145500000Y-95500000D03*
X145500000Y-96300000D03*
X145500000Y-97100000D03*
X145500000Y-97900000D03*
X145500000Y-98700000D03*
X145500000Y-99500000D03*
X145500000Y-100300000D03*
X145500000Y-101100000D03*
X145500000Y-101900000D03*
X145500000Y-102700000D03*
X145500000Y-103500000D03*
X145500000Y-104300000D03*
X144700000Y-91500000D03*
X144700000Y-92300000D03*
X144700000Y-93100000D03*
X144700000Y-93900000D03*
X144700000Y-94700000D03*
X144700000Y-95500000D03*
X144700000Y-96300000D03*
X144700000Y-97100000D03*
X144700000Y-97900000D03*
X144700000Y-98700000D03*
X144700000Y-99500000D03*
X144700000Y-100300000D03*
X144700000Y-101100000D03*
X144700000Y-101900000D03*
X144700000Y-102700000D03*
X144700000Y-103500000D03*
X144700000Y-104300000D03*
X143900000Y-91500000D03*
X143900000Y-92300000D03*
X143900000Y-93100000D03*
X143900000Y-93900000D03*
X143900000Y-94700000D03*
X143900000Y-95500000D03*
X143900000Y-96300000D03*
X143900000Y-97100000D03*
X143900000Y-97900000D03*
X143900000Y-98700000D03*
X143900000Y-99500000D03*
X143900000Y-100300000D03*
X143900000Y-101100000D03*
X143900000Y-101900000D03*
X143900000Y-102700000D03*
X143900000Y-103500000D03*
X143900000Y-104300000D03*
X143100000Y-91500000D03*
X143100000Y-92300000D03*
X143100000Y-93100000D03*
X143100000Y-93900000D03*
X143100000Y-94700000D03*
X143100000Y-95500000D03*
X143100000Y-96300000D03*
X143100000Y-97100000D03*
X143100000Y-97900000D03*
X143100000Y-98700000D03*
X143100000Y-99500000D03*
X143100000Y-100300000D03*
X143100000Y-101100000D03*
X143100000Y-101900000D03*
X143100000Y-102700000D03*
X143100000Y-103500000D03*
X143100000Y-104300000D03*
X142300000Y-91500000D03*
X142300000Y-92300000D03*
X142300000Y-93100000D03*
X142300000Y-93900000D03*
X142300000Y-94700000D03*
X142300000Y-95500000D03*
X142300000Y-96300000D03*
X142300000Y-97100000D03*
X142300000Y-97900000D03*
X142300000Y-98700000D03*
X142300000Y-99500000D03*
X142300000Y-100300000D03*
X142300000Y-101100000D03*
X142300000Y-101900000D03*
X142300000Y-102700000D03*
X142300000Y-103500000D03*
X142300000Y-104300000D03*
X141500000Y-91500000D03*
X141500000Y-92300000D03*
X141500000Y-93100000D03*
X141500000Y-93900000D03*
X141500000Y-94700000D03*
X141500000Y-95500000D03*
X141500000Y-96300000D03*
X141500000Y-97100000D03*
X141500000Y-97900000D03*
X141500000Y-98700000D03*
X141500000Y-99500000D03*
X141500000Y-100300000D03*
X141500000Y-101100000D03*
X141500000Y-101900000D03*
X141500000Y-102700000D03*
X141500000Y-103500000D03*
X141500000Y-104300000D03*
X140700000Y-91500000D03*
X140700000Y-92300000D03*
X140700000Y-93100000D03*
X140700000Y-93900000D03*
X140700000Y-94700000D03*
X140700000Y-95500000D03*
X140700000Y-96300000D03*
X140700000Y-97100000D03*
X140700000Y-97900000D03*
X140700000Y-98700000D03*
X140700000Y-99500000D03*
X140700000Y-100300000D03*
X140700000Y-101100000D03*
X140700000Y-101900000D03*
X140700000Y-102700000D03*
X140700000Y-103500000D03*
X140700000Y-104300000D03*
X139900000Y-91500000D03*
X139900000Y-92300000D03*
X139900000Y-93100000D03*
X139900000Y-93900000D03*
X139900000Y-94700000D03*
X139900000Y-95500000D03*
X139900000Y-96300000D03*
X139900000Y-97100000D03*
X139900000Y-97900000D03*
X139900000Y-98700000D03*
X139900000Y-99500000D03*
X139900000Y-100300000D03*
X139900000Y-101100000D03*
X139900000Y-101900000D03*
X139900000Y-102700000D03*
X139900000Y-103500000D03*
X139900000Y-104300000D03*
X139100000Y-91500000D03*
X139100000Y-92300000D03*
X139100000Y-93100000D03*
X139100000Y-93900000D03*
X139100000Y-94700000D03*
X139100000Y-95500000D03*
X139100000Y-96300000D03*
X139100000Y-97100000D03*
X139100000Y-97900000D03*
X139100000Y-98700000D03*
X139100000Y-99500000D03*
X139100000Y-100300000D03*
X139100000Y-101100000D03*
X139100000Y-101900000D03*
X139100000Y-102700000D03*
X139100000Y-103500000D03*
X139100000Y-104300000D03*
X138300000Y-91500000D03*
X138300000Y-92300000D03*
X138300000Y-93100000D03*
X138300000Y-93900000D03*
X138300000Y-94700000D03*
X138300000Y-95500000D03*
X138300000Y-96300000D03*
X138300000Y-97100000D03*
X138300000Y-97900000D03*
X138300000Y-98700000D03*
X138300000Y-99500000D03*
X138300000Y-100300000D03*
X138300000Y-101100000D03*
X138300000Y-101900000D03*
X138300000Y-102700000D03*
X138300000Y-103500000D03*
X138300000Y-104300000D03*
X137500000Y-91500000D03*
X137500000Y-92300000D03*
X137500000Y-93100000D03*
X137500000Y-93900000D03*
X137500000Y-94700000D03*
X137500000Y-95500000D03*
X137500000Y-96300000D03*
X137500000Y-97100000D03*
X137500000Y-97900000D03*
X137500000Y-98700000D03*
X137500000Y-99500000D03*
X137500000Y-100300000D03*
X137500000Y-101100000D03*
X137500000Y-101900000D03*
X137500000Y-102700000D03*
X137500000Y-103500000D03*
X137500000Y-104300000D03*
X136700000Y-91500000D03*
X136700000Y-92300000D03*
X136700000Y-93100000D03*
X136700000Y-93900000D03*
X136700000Y-94700000D03*
X136700000Y-95500000D03*
X136700000Y-96300000D03*
X136700000Y-97100000D03*
X136700000Y-97900000D03*
X136700000Y-98700000D03*
X136700000Y-99500000D03*
X136700000Y-100300000D03*
X136700000Y-101100000D03*
X136700000Y-101900000D03*
X136700000Y-102700000D03*
X136700000Y-103500000D03*
X136700000Y-104300000D03*
X135900000Y-91500000D03*
X135900000Y-92300000D03*
X135900000Y-93100000D03*
X135900000Y-93900000D03*
X135900000Y-94700000D03*
X135900000Y-95500000D03*
X135900000Y-96300000D03*
X135900000Y-97100000D03*
X135900000Y-97900000D03*
X135900000Y-98700000D03*
X135900000Y-99500000D03*
X135900000Y-100300000D03*
X135900000Y-101100000D03*
X135900000Y-101900000D03*
X135900000Y-102700000D03*
X135900000Y-103500000D03*
X135900000Y-104300000D03*
X135100000Y-91500000D03*
X135100000Y-92300000D03*
X135100000Y-93100000D03*
X135100000Y-93900000D03*
X135100000Y-94700000D03*
X135100000Y-95500000D03*
X135100000Y-96300000D03*
X135100000Y-97100000D03*
X135100000Y-97900000D03*
X135100000Y-98700000D03*
X135100000Y-99500000D03*
X135100000Y-100300000D03*
X135100000Y-101100000D03*
X135100000Y-101900000D03*
X135100000Y-102700000D03*
X135100000Y-103500000D03*
X135100000Y-104300000D03*
X134300000Y-91500000D03*
X134300000Y-92300000D03*
X134300000Y-93100000D03*
X134300000Y-93900000D03*
X134300000Y-94700000D03*
X134300000Y-95500000D03*
X134300000Y-96300000D03*
X134300000Y-97100000D03*
X134300000Y-97900000D03*
X134300000Y-98700000D03*
X134300000Y-99500000D03*
X134300000Y-100300000D03*
X134300000Y-101100000D03*
X134300000Y-101900000D03*
X134300000Y-102700000D03*
X134300000Y-103500000D03*
X134300000Y-104300000D03*
D20*
X131900000Y-77530000D03*
X131000000Y-77530000D03*
D27*
X166649916Y-105950000D03*
X166649916Y-107950000D03*
D11*
X130200000Y-86500000D03*
X131100000Y-86500000D03*
X156350000Y-76500000D03*
X157250000Y-76500000D03*
D20*
X127900000Y-77500000D03*
X127000000Y-77500000D03*
D21*
X79750000Y-115500000D03*
X81750000Y-115500000D03*
D11*
X153850000Y-84500000D03*
X154750000Y-84500000D03*
D16*
X127890000Y-102170000D03*
X127890000Y-101270000D03*
D11*
X153750000Y-136900000D03*
X154650000Y-136900000D03*
X137400000Y-77500000D03*
X138300000Y-77500000D03*
D13*
X125750000Y-99420000D03*
X125750000Y-100320000D03*
D11*
X158850000Y-76500000D03*
X159750000Y-76500000D03*
X158850000Y-136900000D03*
X159750000Y-136900000D03*
D27*
X130490000Y-132770000D03*
X130490000Y-134770000D03*
X130490000Y-136770000D03*
X130490000Y-138770000D03*
D22*
X145500000Y-112890000D03*
X145500000Y-114490000D03*
D12*
X131450000Y-75750000D03*
X133050000Y-75750000D03*
D18*
X87000000Y-105250000D03*
X87000000Y-102250000D03*
D16*
X84700000Y-127250000D03*
X84700000Y-126350000D03*
D21*
X80250000Y-100500000D03*
X82250000Y-100500000D03*
D13*
X79250000Y-102082500D03*
X79250000Y-102982500D03*
D28*
X171120000Y-95872499D03*
X170720000Y-96972499D03*
X171120000Y-98072499D03*
X171320000Y-99172499D03*
X171120000Y-100272499D03*
X171320000Y-101372499D03*
X171120000Y-102472499D03*
X171120000Y-103572499D03*
D29*
X160060000Y-101372499D03*
D30*
X174410000Y-91212499D03*
D31*
X160260000Y-102762499D03*
D30*
X173410000Y-104362499D03*
D31*
X160260000Y-97062499D03*
D16*
X161582666Y-106650000D03*
X161582666Y-105750000D03*
D14*
X150670000Y-95800000D03*
X152270000Y-95800000D03*
D32*
X107850000Y-91959553D03*
X107850000Y-93229553D03*
X107850000Y-94499553D03*
X107850000Y-95769553D03*
X107850000Y-97039553D03*
X107850000Y-98309553D03*
X107850000Y-99579553D03*
X107850000Y-100849553D03*
X107850000Y-102119553D03*
X107850000Y-103389553D03*
X117150000Y-103389553D03*
X117150000Y-102119553D03*
X117150000Y-100849553D03*
X117150000Y-99579553D03*
X117150000Y-98309553D03*
X117150000Y-97039553D03*
X117150000Y-95769553D03*
X117150000Y-94499553D03*
X117150000Y-93229553D03*
X117150000Y-91959553D03*
D11*
X161350000Y-76500000D03*
X162250000Y-76500000D03*
D33*
X164978791Y-110900000D03*
X168378791Y-110900000D03*
D11*
X135800000Y-77500000D03*
X136700000Y-77500000D03*
D16*
X84700000Y-129850000D03*
X84700000Y-128950000D03*
D13*
X79250000Y-104517500D03*
X79250000Y-105417500D03*
D34*
X82200000Y-102569000D03*
X81250000Y-102569000D03*
X80300000Y-102569000D03*
X80300000Y-104931000D03*
X81250000Y-104931000D03*
X82200000Y-104931000D03*
D14*
X143900000Y-117790000D03*
X145500000Y-117790000D03*
D20*
X159737500Y-84500000D03*
X158837500Y-84500000D03*
D21*
X80250000Y-86500000D03*
X82250000Y-86500000D03*
D35*
X164991291Y-107000000D03*
X164991291Y-106350000D03*
X164991291Y-105700000D03*
X162791291Y-105700000D03*
X162791291Y-107000000D03*
D36*
X83750000Y-90750000D03*
X83750000Y-88750000D03*
D20*
X167350000Y-84500000D03*
X166450000Y-84500000D03*
D13*
X127890000Y-99270000D03*
X127890000Y-100170000D03*
D37*
X95000000Y-80000000D03*
D38*
X91000000Y-80000000D03*
D22*
X143510000Y-112890000D03*
X143510000Y-114490000D03*
D11*
X161350000Y-136900000D03*
X162250000Y-136900000D03*
D21*
X86000000Y-93250000D03*
X88000000Y-93250000D03*
D13*
X84700000Y-123850000D03*
X84700000Y-124750000D03*
D22*
X160328791Y-116200000D03*
X160328791Y-114600000D03*
D39*
X138965000Y-116040000D03*
X138965000Y-116440000D03*
D40*
X138965000Y-116940000D03*
D39*
X138965000Y-117440000D03*
X138965000Y-117840000D03*
D41*
X139115000Y-118265000D03*
D42*
X139540000Y-118415000D03*
X139940000Y-118415000D03*
D43*
X140440000Y-118415000D03*
D42*
X140940000Y-118415000D03*
X141340000Y-118415000D03*
D41*
X141765000Y-118265000D03*
D39*
X141915000Y-117840000D03*
X141915000Y-117440000D03*
D40*
X141915000Y-116940000D03*
D39*
X141915000Y-116440000D03*
X141915000Y-116040000D03*
D41*
X141765000Y-115615000D03*
D42*
X141340000Y-115465000D03*
X140940000Y-115465000D03*
D43*
X140440000Y-115465000D03*
D42*
X139940000Y-115465000D03*
X139540000Y-115465000D03*
D41*
X139115000Y-115615000D03*
D25*
X155114999Y-95800000D03*
X157114999Y-95800000D03*
D20*
X162275000Y-84500000D03*
X161375000Y-84500000D03*
D11*
X82400000Y-106433500D03*
X83300000Y-106433500D03*
X129200000Y-77500000D03*
X130100000Y-77500000D03*
D20*
X134300000Y-77500000D03*
X133400000Y-77500000D03*
D16*
X142300000Y-114650000D03*
X142300000Y-113750000D03*
D13*
X124750000Y-99440000D03*
X124750000Y-100340000D03*
D44*
X171148791Y-110921209D03*
X171148791Y-111421209D03*
X171148791Y-111921209D03*
X171148791Y-112421209D03*
X171148791Y-112921209D03*
X171148791Y-113421209D03*
X171148791Y-113921209D03*
X171148791Y-114421209D03*
X171148791Y-114921209D03*
X171148791Y-115421209D03*
X171148791Y-115921209D03*
X171148791Y-116421209D03*
X171148791Y-116921209D03*
X171148791Y-117421209D03*
X171148791Y-117921209D03*
X171148791Y-118421209D03*
X171148791Y-118921209D03*
X171148791Y-119421209D03*
X171148791Y-119921209D03*
X171148791Y-120421209D03*
X171148791Y-120921209D03*
X171148791Y-121421209D03*
X171148791Y-121921209D03*
X171148791Y-122421209D03*
X171148791Y-122921209D03*
X171148791Y-123421209D03*
X171148791Y-123921209D03*
X171148791Y-124421209D03*
X171148791Y-124921209D03*
X171148791Y-125421209D03*
X171148791Y-125921209D03*
X171148791Y-126421209D03*
X171148791Y-126921209D03*
X171148791Y-127421209D03*
X171148791Y-127921209D03*
X171148791Y-128421209D03*
X171148791Y-128921209D03*
X171148791Y-129421209D03*
X171148791Y-129921209D03*
X171148791Y-130421209D03*
D45*
X173473791Y-109381209D03*
X173473791Y-131961209D03*
D20*
X157200000Y-84500000D03*
X156300000Y-84500000D03*
D17*
X85250000Y-115500000D03*
X83250000Y-115500000D03*
D34*
X82200000Y-88569000D03*
X81250000Y-88569000D03*
X80300000Y-88569000D03*
X80300000Y-90931000D03*
X81250000Y-90931000D03*
X82200000Y-90931000D03*
D13*
X79250000Y-90517500D03*
X79250000Y-91417500D03*
D11*
X156350000Y-136900000D03*
X157250000Y-136900000D03*
D22*
X166700000Y-116200000D03*
X166700000Y-114600000D03*
D13*
X79250000Y-88082500D03*
X79250000Y-88982500D03*
D21*
X86000000Y-107500000D03*
X88000000Y-107500000D03*
D36*
X83750000Y-104750000D03*
X83750000Y-102750000D03*
D11*
X126250000Y-86500000D03*
X127150000Y-86500000D03*
D46*
X129490000Y-101970000D03*
X129490000Y-99470000D03*
M02*
