M48
; DRILL file {KiCad (5.99.0-10577-g57d4347f00)} date Thu May 20 13:19:27 2021
; FORMAT={-:-/ absolute / metric / decimal}
; #@! TF.CreationDate,2021-05-20T13:19:27+03:00
; #@! TF.GenerationSoftware,Kicad,Pcbnew,(5.99.0-10577-g57d4347f00)
; #@! TF.FileFunction,Plated,1,4,PTH
FMAT,2
METRIC
; #@! TA.AperFunction,Plated,PTH,ViaDrill
T1C0.200
; #@! TA.AperFunction,Plated,PTH,ViaDrill
T2C0.300
; #@! TA.AperFunction,Plated,PTH,ViaDrill
T3C0.400
; #@! TA.AperFunction,Plated,PTH,ViaDrill
T4C0.500
; #@! TA.AperFunction,Plated,PTH,ComponentDrill
T5C0.762
; #@! TA.AperFunction,Plated,PTH,ComponentDrill
T6C0.800
; #@! TA.AperFunction,Plated,PTH,ComponentDrill
T7C0.813
; #@! TA.AperFunction,Plated,PTH,ComponentDrill
T8C0.900
; #@! TA.AperFunction,Plated,PTH,ComponentDrill
T9C1.000
; #@! TA.AperFunction,Plated,PTH,ComponentDrill
T10C1.016
; #@! TA.AperFunction,Plated,PTH,ComponentDrill
T11C1.143
; #@! TA.AperFunction,Plated,PTH,ComponentDrill
T12C1.200
; #@! TA.AperFunction,Plated,PTH,ComponentDrill
T13C1.600
; #@! TA.AperFunction,Plated,PTH,ComponentDrill
T14C2.300
; #@! TA.AperFunction,Plated,PTH,ComponentDrill
T15C3.000
%
G90
G05
T1
X79.2Y-101.45
X79.3Y-87.45
X79.7Y-106.4
X83.883Y-106.483
X97.855Y-129.3
X97.855Y-129.3
X116.65Y-128.8
X124.8Y-84.4
X124.82Y-83.68
X125.75Y-79.71
X125.84Y-78.3
X125.84Y-78.3
X126.575Y-84.875
X126.75Y-83.15
X126.99Y-76.96
X127.055Y-80.9
X127.06Y-85.94
X127.51Y-84.06
X127.53Y-83.19
X127.765Y-80.9
X127.89Y-100.72
X127.9Y-76.94
X128.08Y-87.08
X128.27Y-79.22
X128.3Y-83.17
X128.4Y-74.25
X128.4Y-75.85
X128.82Y-87.07
X129.2Y-76.94
X129.89Y-79.27
X129.9Y-84.04
X130.1Y-76.95
X130.2Y-87.1
X130.295Y-83.04
X130.7Y-74.4
X130.7Y-75.7
X130.7Y-84.76
X130.71Y-79.95
X130.91Y-80.91
X131.005Y-83.04
X131.01Y-76.94
X131.1Y-85.97
X131.1Y-90.56
X131.1Y-91.26
X131.13Y-88.46
X131.5Y-79.96
X131.86Y-80.88
X131.88Y-82.55
X131.9Y-76.96
X132.03Y-96.23
X132.15Y-83.25
X132.16Y-84.08
X132.27Y-85.78
X132.28Y-84.81
X132.31Y-79.23
X132.6Y-91.64
X132.69Y-81.11
X132.7Y-96.6
X132.7Y-109.0
X132.82Y-94.75
X133.0Y-119.8
X133.09Y-79.25
X133.16Y-97.83
X133.3Y-96.1
X133.39Y-81.11
X133.4Y-76.96
X133.7Y-78.4
X133.7Y-102.1
X133.7Y-110.4
X133.79Y-91.51
X133.9Y-104.7
X133.9Y-108.2
X134.5Y-76.5
X134.7Y-97.5
X134.7Y-100.7
X134.7Y-102.3
X135.0Y-115.9
X135.0Y-116.7
X135.04Y-85.72
X135.05Y-78.35
X135.09Y-81.07
X135.39Y-79.25
X135.4Y-112.4
X135.41Y-89.445
X135.41Y-90.155
X135.44Y-84.0
X135.47Y-80.03
X135.5Y-92.7
X135.5Y-94.3
X135.5Y-95.1
X135.5Y-96.7
X135.5Y-100.7
X135.5Y-102.3
X135.5Y-103.9
X135.76Y-90.79
X135.79Y-76.97
X135.9Y-104.8
X135.9Y-115.9
X135.9Y-116.7
X136.3Y-92.7
X136.3Y-94.3
X136.3Y-95.1
X136.3Y-95.9
X136.3Y-96.7
X136.3Y-99.9
X136.3Y-102.3
X136.3Y-103.1
X136.3Y-103.9
X136.34Y-84.88
X136.5Y-118.4
X136.7Y-74.3
X136.7Y-75.7
X136.7Y-76.96
X136.8Y-106.8
X137.02Y-79.19
X137.1Y-92.7
X137.1Y-93.5
X137.1Y-99.1
X137.1Y-101.5
X137.2Y-119.8
X137.3Y-125.49
X137.4Y-76.94
X137.68Y-85.7
X137.8Y-80.05
X137.85Y-84.01
X137.9Y-92.7
X137.9Y-93.5
X137.9Y-94.3
X137.9Y-95.1
X137.9Y-95.9
X137.9Y-96.7
X137.9Y-97.5
X137.9Y-98.3
X137.9Y-99.1
X137.9Y-100.7
X137.9Y-101.5
X137.9Y-103.1
X138.0Y-116.0
X138.0Y-119.8
X138.1Y-115.0
X138.29Y-76.95
X138.42Y-85.73
X138.69Y-79.9
X138.69Y-83.46
X138.7Y-93.5
X138.7Y-94.3
X138.7Y-95.1
X138.7Y-95.9
X138.7Y-99.1
X138.7Y-99.9
X138.7Y-100.7
X139.2Y-114.5
X139.3Y-83.9
X139.39Y-119.43
X139.5Y-94.3
X139.5Y-96.7
X139.5Y-97.5
X139.5Y-100.7
X139.72Y-116.94
X140.0Y-114.5
X140.09Y-119.43
X140.3Y-92.7
X140.3Y-93.5
X140.3Y-94.3
X140.3Y-95.1
X140.3Y-95.9
X140.3Y-96.7
X140.3Y-97.5
X140.3Y-98.3
X140.3Y-99.1
X140.3Y-100.7
X140.3Y-101.5
X140.3Y-102.3
X140.3Y-103.9
X140.43Y-116.94
X140.44Y-116.22
X140.44Y-117.66
X141.1Y-93.5
X141.1Y-94.3
X141.1Y-101.5
X141.16Y-116.94
X141.21Y-122.86
X141.5Y-104.9
X141.5Y-113.2
X141.9Y-92.7
X141.9Y-93.5
X141.9Y-94.3
X141.9Y-95.1
X141.9Y-95.9
X141.9Y-96.7
X141.9Y-97.5
X141.9Y-98.3
X141.9Y-99.9
X141.9Y-100.7
X141.9Y-103.1
X141.9Y-103.9
X141.9Y-115.0
X142.6Y-118.0
X142.7Y-92.7
X142.7Y-93.5
X142.7Y-98.3
X142.7Y-100.7
X142.7Y-102.3
X142.7Y-112.9
X143.4Y-111.0
X143.4Y-112.0
X143.5Y-93.5
X143.5Y-95.1
X143.5Y-97.5
X143.5Y-99.1
X143.5Y-101.5
X143.5Y-102.3
X143.5Y-103.1
X143.6Y-90.1
X143.6Y-109.9
X143.9Y-115.6
X144.2Y-109.0
X144.3Y-95.9
X144.3Y-97.5
X144.3Y-98.3
X144.3Y-99.1
X144.3Y-99.9
X144.3Y-100.7
X144.3Y-102.3
X144.3Y-103.1
X144.4Y-114.3
X144.8Y-110.5
X145.1Y-92.7
X145.1Y-93.5
X145.1Y-96.7
X145.1Y-98.3
X145.1Y-99.1
X145.1Y-99.9
X145.1Y-100.7
X145.1Y-101.5
X145.1Y-102.3
X145.1Y-103.1
X145.2Y-109.0
X145.495Y-112.2
X145.9Y-92.7
X145.9Y-93.5
X145.9Y-95.9
X145.9Y-97.5
X145.9Y-98.3
X145.9Y-99.1
X145.9Y-99.9
X145.9Y-100.7
X145.9Y-101.5
X145.9Y-102.3
X145.9Y-103.9
X146.2Y-117.8
X146.7Y-95.1
X146.7Y-95.9
X147.5Y-95.1
X147.5Y-95.9
X147.5Y-104.7
X147.6Y-91.5
X147.6Y-112.2
X148.0Y-119.8
X148.06Y-138.42
X148.4Y-93.1
X148.4Y-93.9
X149.8Y-97.0
X149.83Y-140.21
X150.03Y-136.58
X151.31Y-137.86
X156.3Y-85.2
X158.2Y-137.0
X158.8Y-77.2
X158.8Y-85.2
X159.19Y-102.74
X159.2Y-97.06
X159.5Y-116.2
X160.6Y-137.0
X160.829Y-106.4
X161.079Y-105.9
X161.3Y-77.2
X161.4Y-85.2
X163.9Y-85.2
X163.9Y-127.4
X164.079Y-106.15
X165.0Y-125.9
X165.6Y-125.1
X165.8Y-116.2
X166.329Y-108.65
X166.4Y-85.2
X166.829Y-108.65
X167.0Y-126.4
X167.9Y-126.9
X169.41Y-124.93
X169.7Y-114.1
X169.99Y-128.49
X170.0Y-114.8
X170.079Y-105.65
X170.079Y-106.15
X170.079Y-106.65
X172.299Y-111.76
X172.319Y-112.57
X172.47Y-101.36
X172.5Y-99.16
X172.5Y-121.4
X172.6Y-114.4
X172.6Y-116.4
X173.1Y-117.1
X173.1Y-118.0
X173.1Y-118.9
X173.41Y-105.38
X173.6Y-122.9
X173.8Y-120.1
X174.2Y-122.1
X174.42Y-90.14
T2
X84.7Y-123.2
X84.7Y-125.4
X85.6Y-127.3
X85.6Y-129.8
X109.5Y-99.6
X110.6Y-100.8
X111.3Y-87.5
X113.1Y-87.6
X113.1Y-91.4
X113.9Y-102.1
X114.3Y-91.4
X118.75Y-95.25
X119.6Y-96.8
X124.0Y-102.0
X125.7Y-98.7
X152.7Y-128.3
X153.1Y-84.5
X153.1Y-136.9
X153.2Y-76.5
X153.6Y-128.3
X153.8Y-131.0
X154.7Y-136.2
X154.8Y-85.2
X155.5Y-136.9
X155.6Y-76.5
X156.0Y-131.0
T3
X121.5Y-76.5
X121.5Y-77.5
X121.5Y-78.5
X121.5Y-79.5
X121.5Y-80.5
X122.5Y-76.5
X122.5Y-77.5
X122.5Y-78.5
X122.5Y-79.5
X122.5Y-80.5
T4
X83.2Y-100.45
X83.25Y-86.5
X88.0Y-94.45
X88.0Y-108.75
X89.0Y-93.25
X89.0Y-107.45
X160.3Y-108.3
T5
X80.468Y-117.873
X82.5Y-118.127
T6
X81.23Y-82.0
X81.23Y-96.0
X81.23Y-110.5
X83.77Y-82.0
X83.77Y-96.0
X83.77Y-110.5
T7
X84.532Y-117.873
T8
X94.0Y-130.625
X96.5Y-130.625
X98.5Y-130.625
X101.0Y-130.625
X112.8Y-130.625
X115.3Y-130.625
X117.3Y-130.625
X119.8Y-130.625
X136.055Y-126.4
X137.325Y-123.86
X138.595Y-126.4
X139.865Y-123.86
X141.135Y-126.4
X142.405Y-123.86
X143.675Y-126.4
X144.945Y-123.86
T9
X134.175Y-137.83
X136.715Y-136.13
X144.285Y-137.83
X146.825Y-136.13
T10
X82.373Y-126.83
X82.373Y-131.91
X82.627Y-124.29
X82.627Y-129.37
X104.0Y-92.0
X104.0Y-94.75
X104.0Y-97.5
X104.0Y-100.25
X104.0Y-103.0
X104.0Y-105.75
X108.125Y-105.75
X112.25Y-105.75
X116.375Y-105.75
X120.75Y-92.0
X120.75Y-95.438
X120.75Y-98.875
X120.75Y-102.312
X120.75Y-105.75
X154.22Y-73.973
X154.22Y-82.073
X154.22Y-133.9
X154.22Y-138.973
X156.76Y-74.227
X156.76Y-82.327
X156.76Y-133.9
X156.76Y-139.227
X159.3Y-73.973
X159.3Y-82.073
X159.3Y-138.973
X161.84Y-74.227
X161.84Y-82.327
X161.84Y-139.227
X164.38Y-73.973
X164.38Y-82.073
X164.38Y-138.973
T11
X169.46Y-82.073
T12
X90.46Y-74.0
X95.54Y-74.0
T13
X132.625Y-129.7
X148.375Y-129.7
T14
X90.93Y-133.335
X104.07Y-133.335
X109.73Y-133.335
X122.87Y-133.335
T15
X82.0Y-74.0
X82.0Y-139.0
X172.0Y-74.0
X172.0Y-139.0
T10
G00X166.92Y-82.327
M15
G01X166.92Y-82.327
M16
G05
T0
M30
