G04 #@! TF.GenerationSoftware,KiCad,Pcbnew,(5.99.0-10577-g57d4347f00)*
G04 #@! TF.CreationDate,2021-05-20T13:19:23+03:00*
G04 #@! TF.ProjectId,imx6ull_tryout,696d7836-756c-46c5-9f74-72796f75742e,rev?*
G04 #@! TF.SameCoordinates,Original*
G04 #@! TF.FileFunction,Legend,Bot*
G04 #@! TF.FilePolarity,Positive*
%FSLAX46Y46*%
G04 Gerber Fmt 4.6, Leading zero omitted, Abs format (unit mm)*
G04 Created by KiCad (PCBNEW (5.99.0-10577-g57d4347f00)) date 2021-05-20 13:19:23*
%MOMM*%
%LPD*%
G01*
G04 APERTURE LIST*
%ADD10C,0.190500*%
G04 APERTURE END LIST*
D10*
X139000000Y-101600000D02*
X139000000Y-101200000D01*
X143100000Y-94400000D02*
X143100000Y-94000000D01*
X138250000Y-86450000D02*
X138250000Y-86050000D01*
X135300000Y-99400000D02*
X135300000Y-98600000D01*
X130320000Y-80460000D02*
X129920000Y-80460000D01*
X143358579Y-98541421D02*
X143641421Y-98258579D01*
X135200000Y-91900000D02*
X135200000Y-91500000D01*
X125600000Y-79200000D02*
X124300000Y-79200000D01*
X136800000Y-100500000D02*
X136800000Y-100900000D01*
X137500000Y-91900000D02*
X137500000Y-92300000D01*
X139100000Y-95400000D02*
X139500000Y-95400000D01*
X139000000Y-102300000D02*
X139000000Y-101900000D01*
X141500000Y-102500000D02*
X141500000Y-102100000D01*
X143941421Y-100958579D02*
X143658579Y-101241421D01*
X140700000Y-95380000D02*
X141100000Y-95380000D01*
X137100000Y-96400000D02*
X137500000Y-96400000D01*
X139500000Y-98600000D02*
X139900000Y-98600000D01*
X134000000Y-101000000D02*
X134400000Y-101000000D01*
X173110000Y-100200000D02*
X173910000Y-100200000D01*
X137600000Y-99800000D02*
X137600000Y-100200000D01*
X136700000Y-103500000D02*
X137100000Y-103500000D01*
X139100000Y-97000000D02*
X138700000Y-97000000D01*
X135300000Y-102800000D02*
X135300000Y-103200000D01*
X136100000Y-101300000D02*
X136100000Y-101700000D01*
X142300000Y-95400000D02*
X142700000Y-95400000D01*
X142900000Y-100200000D02*
X142900000Y-99800000D01*
X143710000Y-92290000D02*
X143710000Y-91890000D01*
X136700000Y-111300000D02*
X137100000Y-111300000D01*
X142100000Y-101700000D02*
X142100000Y-101300000D01*
X146700000Y-93100000D02*
X146300000Y-93100000D01*
X140700000Y-97000000D02*
X141100000Y-97000000D01*
X143500000Y-96500000D02*
X143900000Y-96500000D01*
X140400000Y-99500000D02*
X140400000Y-100300000D01*
X172310000Y-100250000D02*
X172710000Y-100250000D01*
X135300000Y-100100000D02*
X135300000Y-99700000D01*
X137900000Y-98000000D02*
X137900000Y-98800000D01*
X132500000Y-78550000D02*
X132500000Y-78950000D01*
X136190000Y-78970000D02*
X135790000Y-78970000D01*
X137400000Y-102500000D02*
X137400000Y-102100000D01*
X142600000Y-90300000D02*
X142600000Y-89900000D01*
X141513708Y-99088202D02*
X141826292Y-98351798D01*
X133050000Y-80570000D02*
X133050000Y-80170000D01*
X136475000Y-112220000D02*
X136475000Y-112620000D01*
X136800000Y-94800000D02*
X137200000Y-94800000D01*
X142300000Y-97100000D02*
X142700000Y-97100000D01*
M02*
